<?xml version="1.0" standalone="no"?>
<!DOCTYPE svg PUBLIC "-//W3C//DTD SVG 20010904//EN"
 "http://www.w3.org/TR/2001/REC-SVG-20010904/DTD/svg10.dtd">
<svg version="1.0" xmlns="http://www.w3.org/2000/svg"
 width="300.000000pt" height="300.000000pt" viewBox="0 0 300.000000 300.000000"
 preserveAspectRatio="xMidYMid meet">
<metadata>
Created by potrace 1.10, written by Peter Selinger 2001-2011
</metadata>
<g transform="translate(0.000000,300.000000) scale(0.100000,-0.100000)"
fill="#000000" stroke="none">
<path d="M420 1560 l0 -290 1080 0 1080 0 0 290 0 290 -1080 0 -1080 0 0 -290z
m2140 0 l0 -270 -1060 0 -1060 0 0 270 0 270 1060 0 1060 0 0 -270z"/>
<path d="M490 1558 l0 -233 605 0 605 0 0 233 0 232 -605 0 -605 0 0 -232z
m1158 180 c17 -17 16 -78 -2 -78 -7 0 -19 7 -26 15 -10 12 -41 14 -168 12 -92
-2 -165 -7 -176 -14 -15 -8 -25 -7 -44 5 -24 15 -26 15 -49 -12 l-24 -29 -28
27 c-15 14 -34 26 -43 26 -16 0 -71 -56 -80 -82 -3 -7 -9 -10 -13 -6 -4 4 -2
14 4 22 16 20 -2 54 -32 61 -38 10 -155 -1 -172 -15 -14 -11 -21 -11 -46 4
-26 15 -35 16 -60 6 -23 -10 -33 -10 -42 -1 -14 14 -80 14 -95 -1 -15 -15 -26
13 -18 47 l6 25 548 0 c413 0 551 -3 560 -12z m-1017 -88 c30 -17 22 -30 -17
-27 -51 3 -52 -15 -2 -38 48 -22 58 -47 32 -76 -19 -21 -55 -25 -85 -8 -30 16
-13 28 31 22 53 -7 55 18 3 44 -44 21 -56 59 -27 80 22 16 39 16 65 3z m131
-51 l43 -61 3 61 c2 45 7 61 17 61 12 0 15 -17 15 -85 0 -105 -12 -109 -71
-25 -23 33 -44 60 -46 60 -3 0 -3 -26 -2 -57 2 -42 -1 -58 -10 -58 -10 0 -13
21 -12 78 0 95 -1 87 11 87 5 0 29 -27 52 -61z m218 46 c0 -11 -11 -15 -40
-15 -33 0 -40 -3 -40 -20 0 -16 7 -20 35 -20 25 0 35 -4 35 -15 0 -13 -7 -15
-35 -9 -33 6 -35 5 -35 -20 0 -24 4 -26 40 -26 29 0 40 -4 40 -15 0 -11 -12
-15 -50 -15 l-50 0 0 85 0 85 50 0 c38 0 50 -4 50 -15z m156 -69 c39 -91 38
-86 21 -86 -8 0 -19 11 -25 25 -9 20 -19 25 -46 25 -28 0 -35 -4 -40 -25 -4
-14 -13 -25 -22 -25 -18 0 -15 15 27 108 16 35 34 62 40 60 6 -2 26 -39 45
-82z m86 33 l-3 -44 48 48 c27 26 54 47 61 47 19 0 14 -8 -23 -41 -19 -17 -35
-34 -35 -38 0 -3 16 -23 35 -43 39 -40 42 -48 21 -48 -8 0 -28 16 -45 36 -24
27 -35 33 -45 25 -7 -6 -11 -22 -8 -36 3 -18 0 -25 -12 -25 -13 0 -16 13 -16
86 0 64 3 85 13 81 8 -3 11 -20 9 -48z m253 36 c0 -5 -17 -11 -37 -13 -30 -3
-38 -7 -38 -23 0 -15 7 -19 36 -19 24 0 34 -4 31 -12 -2 -8 -17 -12 -36 -10
-27 2 -31 -1 -31 -23 0 -22 4 -25 35 -25 24 0 35 -5 35 -15 0 -11 -12 -15 -50
-15 l-50 0 0 78 c0 43 3 82 7 86 11 10 98 3 98 -9z m118 6 c34 -13 44 -47 22
-71 -17 -19 -16 -21 9 -55 24 -30 25 -35 9 -35 -10 0 -29 16 -42 35 -31 46
-51 46 -51 0 0 -24 -5 -35 -15 -35 -12 0 -15 15 -15 78 0 43 3 82 7 85 9 10
48 9 76 -2z m-473 -176 c16 -14 93 -14 123 -1 9 5 30 4 45 -2 15 -6 41 -11 57
-12 116 -3 179 2 208 15 11 4 28 3 40 -3 12 -6 31 -12 42 -14 22 -4 30 -27 21
-64 l-6 -24 -558 2 -557 3 -3 48 c-3 52 -3 52 43 36 26 -10 38 -9 65 5 23 11
37 13 44 6 15 -15 37 -12 58 6 15 14 20 15 34 3 36 -30 260 -27 291 4 16 16
25 15 53 -8z"/>
<path d="M1080 1613 c0 -6 -3 -18 -6 -26 -3 -9 3 -16 16 -20 18 -4 20 -2 14
16 -8 26 -24 46 -24 30z"/>
<path d="M1540 1605 c0 -23 3 -25 28 -19 34 9 36 10 29 29 -4 8 -18 15 -32 15
-20 0 -25 -5 -25 -25z"/>
<path d="M1740 1560 l0 -80 50 0 c37 0 55 5 71 21 19 19 19 22 5 44 -10 15
-12 26 -6 30 17 10 11 44 -9 55 -11 5 -40 10 -65 10 l-46 0 0 -80z m88 33 c2
-8 -6 -13 -22 -13 -25 0 -33 10 -19 24 10 10 36 3 41 -11z m0 -60 c5 -17 -26
-29 -40 -15 -6 6 -7 15 -3 22 9 14 37 9 43 -7z"/>
<path d="M1913 1614 c-50 -50 -10 -134 64 -134 44 0 83 37 83 80 0 72 -94 107
-147 54z m97 -34 c20 -38 -12 -70 -54 -54 -16 6 -22 54 -9 67 14 14 53 6 63
-13z"/>
<path d="M2080 1633 c0 -3 11 -21 25 -38 l24 -32 -30 -42 -31 -41 30 0 c22 0
32 7 41 27 12 27 13 27 27 8 8 -10 14 -22 14 -27 0 -4 14 -8 31 -8 l31 0 -31
41 -30 42 24 32 c31 40 31 45 0 45 -16 0 -29 -9 -38 -26 l-13 -25 -14 25 c-8
17 -22 26 -37 26 -13 0 -23 -3 -23 -7z"/>
<path d="M2260 1560 c0 -79 0 -80 25 -80 22 0 25 3 19 25 -6 23 -3 25 25 25
24 0 31 4 31 20 0 16 -7 20 -30 20 -20 0 -30 5 -30 15 0 10 10 15 30 15 23 0
30 4 30 20 0 17 -7 20 -50 20 l-50 0 0 -80z"/>
<path d="M2390 1560 l0 -80 55 0 c52 0 55 1 55 24 0 23 -3 24 -36 19 l-36 -6
4 62 c3 58 2 61 -19 61 -22 0 -23 -4 -23 -80z"/>
</g>
</svg>
